<?xml version="1.0" encoding="UTF-8"?>
<svg version="1.1" viewBox="0 0 1268 1324" width="1280" height="1280" xmlns="http://www.w3.org/2000/svg">
<path transform="translate(0)" d="m0 0h1268v1324h-1268z" fill="#FCFCFB"/>
<path transform="translate(0)" d="m0 0h1268v1324h-1268zm486 58-45 1-62 3-45 5-34 7-25 7-20 7-20 9-20 10-24 16-13 10-14 13-8 7-8 8-7 8-9 10-12 16-12 19-13 25-10 25-6 18-8 31-4 22-4 33-2 28-2 51-1 55v201l2 120 2 52 3 39 4 29 6 28 7 23 10 26 9 20 11 20 12 18 8 10 13 15 12 13 13 12 11 9 13 10 16 10 10 6 26 12 26 10 31 9 25 5 30 4 54 4 26 1 74 1h276l48-1 55-3 37-4 29-5 30-8 26-9 20-9 23-12 21-14 13-10 13-11 16-15 9-10 11-13 13-18 9-15 12-23 8-19 10-30 6-24 5-27 4-36 3-54 1-29 1-55v-254l-2-73-3-56-4-34-6-32-7-26-7-20-11-26-11-21-12-19-10-13-12-14-12-13-7-7-8-7-13-11-18-13-17-10-17-9-26-11-27-9-24-6-21-4-34-4-52-3-21-1-87-1z" fill="#FCFCFB"/>
<path transform="translate(486,58)" d="m0 0h260l83 1 60 3 31 3 21 3 29 6 20 6 18 6 21 9 19 9 17 10 17 12 11 9 12 11 8 7 9 9 7 8 11 13 12 17 13 22 11 23 8 20 9 29 6 27 5 32 2 19 3 56 2 73v254l-1 55-2 50-3 43-4 32-7 34-8 27-9 24-12 25-11 19-12 17-14 17-7 7-7 8-15 14-10 8-16 12-11 7-15 9-22 11-26 10-26 8-26 6-35 5-37 3-39 2-48 1h-276l-74-1-42-2-38-3-36-5-23-5-30-9-25-10-16-7-22-12-16-11-16-13-11-10-8-7-14-15-18-22-12-19-6-10-10-21-10-25-8-24-6-24-5-31-3-31-2-38-1-31-2-120v-201l1-55 2-51 3-39 5-34 5-23 8-28 8-21 9-20 10-19 14-21 11-14 22-24 16-15 11-9 15-11 19-12 26-13 23-9 26-8 31-7 27-4 29-3 62-3zm-7 104-69 2-34 2-31 4-24 5-33 11-16 8-16 9-14 11-12 11-11 11-11 14-12 19-8 16-6 15-6 19-5 22-4 28-2 25-2 43-1 46v314l1 37 3 56 3 26 5 25 7 24 10 24 11 20 10 13 9 11 17 17 13 10 19 12 24 11 28 9 23 5 22 3 39 3 45 2 49 1h265l79-2 49-3 33-5 23-5 27-9 27-13 18-12 11-9 12-11 12-14 10-14 8-14 9-19 10-30 6-29 3-23 3-43 2-60 1-64v-161l-2-118-2-46-2-29-4-31-5-19-13-40-8-16-7-11-10-13-10-11-7-8-22-18-15-10-16-8-28-10-32-8-20-3-40-3-30-1-49-1z" fill="#8B39A0"/>
<path transform="translate(613,338)" d="m0 0h42l26 3 29 6 23 7 24 10 23 12 15 9 13 9 12 9 14 12 15 14 8 10 12 13 16 24 14 24 9 20 9 24 7 26 5 29 1 11v43l-4 33-6 25-7 22-10 25-12 24-14 21-9 12-9 11-11 12-16 16-11 9-14 11-10 7-13 8-23 12-19 8-20 7-21 6-20 4-41 4h-21l-25-3-29-6-28-8-21-8-23-11-20-12-17-12-11-9-14-12-14-14-7-8-13-16-14-21-10-17-12-25-9-24-7-27-4-23-3-31v-18l2-25 4-26 6-24 10-28 11-24 9-17 8-12 10-14 13-16 12-13 10-10 8-7 12-10 18-13 24-14 21-10 20-8 27-8 25-5z" fill="#D2476C"/>
<path transform="translate(628,441)" d="m0 0h12l21 2 17 3 18 5 24 10 18 10 14 10 11 9 17 17 13 17 8 13 9 17 7 18 6 22 3 21 1 23-2 23-5 24-7 21-9 19-8 13-14 19-15 16-10 9-15 11-15 9-23 11-18 6-24 5-17 2h-20l-25-3-20-5-15-5-24-11-18-11-12-9-15-14-11-12-10-14-10-17-10-21-7-21-4-19-2-15v-32l5-30 6-20 5-12 10-19 13-19 11-13 11-12 13-11 10-7 13-8 15-8 21-8 25-6 14-2z" fill="#FCFCFB"/>
<path transform="translate(143,730)" d="m0 0 4 1 1 2 7-1 3 2v3l2 1 1 2 3 94 3 56 3 26 5 25 7 24 10 24 11 20 10 13 9 11 16 16 13 10 19 12 24 11 28 9 23 5 22 3 39 3 45 2 49 1h265l79-2 49-3 33-5 18-4 4 1-5 2-24 5-17 2 1 5h7l3-1 13 4 2 1v5l-2 3-7-1 3 4-3 2 4 2h3l-1 4h-2v3l-2 1 1 1v6l3 3 1 3 2 2-2 4 2 6 3-1-1-5 4 1 1 6 5-2 1 5-1 2h-2l1 9-1 1v2l3-3 3 1-2 1v3l6-1v-2h5v2l2 1 4 1 1-2v3l-5 1-1 4-1 1h-5v2l-7 3-9 2-7 1-2 2h-4l-1 3-5 2-11 1h-7l-2 1-34 3-2 1-21 1-48 1h-276l-74-1-42-2-38-3-36-5-23-5-30-9-25-10-16-7-22-12-16-11-16-13-11-10-8-7-14-15-18-22-12-19-6-10-10-21-10-25-8-24-6-24-5-31-3-31-1-17v-92l2-14 3 1 2-5 2 1 6-8 8-6 7-1 1-2h8l9-6 9-4 3-3 4-1h2l3-1v-2z" fill="#F4882A"/>
<path transform="translate(1108,453)" d="m0 0 1 3 2 1v5l1 5-1 2h2v11l2 14 2 16 3 2-1 4 1 7 4 1 1 4 5 3 3 4 3-1 3 6 5-1 1 2 8 3 4 3 6 5v1l8 2 1 3 2 1 1-3 1 2 3 1v2l2 1v2l5 2 2 2 1 2 5 1 3 7h1l3-5 1-10v-6l1-3-1-3 1-9 2-5 1 2 2 1-1 2h2l1 41 1 120v52l-1 55-2 50-3 43-4 32-7 34-8 27-9 24-12 25-11 19-12 17-14 17-7 7-7 8-15 14-10 8-16 12-11 7-15 9-22 11-26 10-26 8-26 6-35 5-37 3h-16v-1l34-3 2-1h10l10-2 3-1 1-2 10-4 12-1 1-2 6-1v-2l6-2 1-3 5-2h-1l-5 1-2-4-4-1v2l-6 1 1-4-2-1-1 3h-2l-2-4h2l-1-6 1-2h2v-6l-5 1-2-6-3-1v2l2 1-1 4-4-1-2-7 1-4-1-3-3-1v-2l-1-2 1-5-2-1 3-1v-3h2l-1-4-2 1v-2l-4-1 3-3-3-3 3-1 4 1 2-4 1-3-13-3-4-2-1 2-7-1v-2l-2-1 1-2 8-2 19-3 16-4 11-4 20-7 27-13 18-12 11-9 12-11 18-22 9-15 11-23 10-30 6-29 3-23 3-43 2-60 1-64v-181z" fill="#D2476C"/>
<path transform="translate(454,532)" d="m0 0h2l1 5h6l1 8-8 16-8 26-5 30v32l4 26 6 21 9 21 10 19 11 16 13 15 9 9 11 9 15 10 16 9 26 11 23 6 18 3 11 1h20l17-2 24-5 18-6 25-12 16-10 14-11 5-5 3 1-5 5-8 7-13 9 7-1 1-2h3v-2l7-3 6-3h2l1-2h5l6-7h3l4 4 2 4 2 1v-2l4 2h-2v2l-2 2h4l2-1 1 8-1 3 5 5 1 5 6 3-1 3 4 2 2 3 6 1v3l3-1v2l4 1 1-1 2 1 1-3 4 1 1 3-1 2 5 2-2 1v3h-2l-2 6h-2l-2 8h-2v2h-3l-1 4h-2v2h-3l-1 5-6 7-2-1-5 5h-2l-2 4-5 5-11 7-23 12-19 8-20 7-21 6-20 4-41 4h-21l-25-3-29-6-28-8-21-8-23-11-20-12-17-12-11-9-14-12-14-14-7-8-13-16-14-21-10-17-12-25-9-24-7-27-4-23-3-31v-18l2-25 3-21h1l1 7-1 6 4-6 3-7 5-8h7l1-2 5-1 3-2 9-1v4l9-1h3v-2h2v2l4-1 7-2v-1h7l5-1 4 1 7-1 2 1v-2h2l2 6 4 1 1 2 7-1v3h2l2-8 2-7-1-5 2-1v-3h-2l1-2 2 1-2-6-2-4-2-1 3-4z" fill="#E86B46"/>
<path transform="translate(162,332)" d="m0 0 3 1 1 7-1 12 2 1 2 8-2 18-3 58-1 46-1 283h-1l-1-26-5-7-8 1-1-3-15 1v2l-4 3-3-1-4 1-2 4-8 3-9 6h-8l-3 2-6 2-9 7-3 6-3-1-2 4h-2l-2 13-1 71h-1l-1-31-2-120v-201l1-55h1l1-17 1-16 1-19 1-5 2-19 1-2v-10l3-1 4 1 1-4h2l1-4 2 1v2l3 1 1-2 6 2v2h-2l-1 2 2 1-2 1 2 3 5-1 1-3h2l1-2 3-2v3l6-5 3 1v4l4-1 1-2 5-1 1-2h4l2-2 6-1v-2h2v-2h3l1-2 2 1 2-4 3 1 1-5h2v-2l4-2h5l2 3z" fill="#A43891"/>
<path transform="translate(968,177)" d="m0 0 1 2 7-1v1l11 3 4 2 1 2 6 1 3 3 3 2 13 3 3 2v2l6 2v2h2l2 3 5 1 2-7 7 1 5 5 4 1 2 4 9 3 5 4v2l9 2v2l11 1 4 1 4-1h7l5 1 1-3 4 1 3-1v2h5v-2h2v-2l4-1h7l-1-3 2-4h5l6 2 3-1 3 3h2l2 4v2l3 3v4h2l1 4 4 2 4 10 1 3v3h2l2 5v4h2l3 10 5 12 2 5h1l1 7 4 10v5l3 1 5 27 4 34 3 56 2 73v202h-1l-1-132v-29h-2l-1-3-2 4-1 9 1 3-1 2v11l-1 5-1 4-3 3-2-1-2-7-8-4-3-3-2-1v-2l-4-2 1-1-3-2-1 2-3-1-3-3-6-1-2-4-4-1v-1l-5-4-7-3v-2l-5 1-3-3-1-2-3 1-3-5-5-3v-4l-4-1-2-3v-7l1-1-3-2-2-16-1-11-1-9 1-5h-2v-6l-1-5h-1l-1 88h-1l-2-98-2-46-2-29-4-31-5-19-13-40-8-16-7-11-10-13-10-11-6-7-22-18-15-10-16-8-22-8z" fill="#A53890"/>
<path transform="translate(944,1091)" d="m0 0 4 1-5 2-24 5-17 2 1 5h7l3-1 13 4 2 1v5l-2 3-7-1 3 4-3 2 4 2h3l-1 4h-2v3l-2 1 1 1v6l3 3 1 3 2 2-2 4 2 6 3-1-1-5 4 1 1 6 5-2 1 5-1 2h-2l1 9-1 1v2l3-3 3 1-2 1v3l6-1v-2h5v2l2 1 4 1 1-2v3l-5 1-1 4-1 1h-5v2l-7 3-9 2-7 1-2 2h-4l-1 3-5 2-11 1h-7l-2 1-34 3-2 1-21 1-48 1h-109l-63-1 2-2-1-3-2-2h10l-3-4 1-1-9-2-1-5-1-2-4-2 3-3 7-2 3-4h3l-1-9-4-3 1-4 3-2 1-3h-2l-1-6-3 1-8-1 1-5 2-3-4-1v-2l3-1-1-1-9-1-3-2v-3l5-3h2l-1-3h-6l1-4-2-3-4 1-1-3-3-1v-4l-24-1v-3l199-1 79-2 49-3 33-5z" fill="#E86B46"/>
<path transform="translate(142,543)" d="m0 0h6l3 6 1 4 3 4 2 6 3 3 2-3v203h-1l-1-26-5-7-8 1-1-3-15 1v2l-4 3-3-1-4 1-2 4-8 3-9 6h-8l-3 2-6 2-9 7-3 6-3-1-2 4h-2l-2 13-1 71h-1l-1-31-2-120v-60h1l2-51 3-7 2-1v-6h2l-1-4 5-4 6-2v-3h2l-1-3 9-2 4-1h11l3-4 5-2 7-1 5 1 5-3 2-4 5 1v2l5-2z" fill="#D2476C"/>
<path transform="translate(934,257)" d="m0 0h19l12 4 21 11 10 10 9 16 6 16 1 6v13l-5 17-9 17-11 12-10 7-13 6-13 3h-17l-14-3-16-8-9-7-10-11-6-10-3-7-3-14v-17l4-16 7-14 7-9 9-8 14-8 15-5z" fill="#A53890"/>
<path transform="translate(143,730)" d="m0 0 4 1 1 2 7-1 3 2v3l2 1 1 2 3 94v12l-2-3-3-10-4 3-5 2v3h-2l-1 4-3 1-9 1-7 3-5 1 1 3-2 3-5 2h-4l-1 3h-2v2l-4 2-7-1-2 3-3-2-5 1v2l-5 3-3 5-3 1-2-1v3l-3-1v-2h-2l-2-11-1-1-1 3-2-1 3 51 1 16-2-3-4-39-1-17v-92l2-14 3 1 2-5 2 1 6-8 8-6 7-1 1-2h8l9-6 9-4 3-3 4-1h2l3-1v-2z" fill="#E86B46"/>
<path transform="translate(1109,398)" d="m0 0 3 3 3 1 2 9 3 9 4 9 1 1 8-1v3l2 1v2l1 8 1 4h4l1-5 2-1 3 1 2 5 4 2 3 6 5-2 1 2 8-2 6 3 8 1v-2l4 1 2 2 6 2 4 11 1 6 2 6-1 7 2 1v15l1 3-1 4 1 4v8l1 9-1 6-1 7-1 5 1 3-1 2v11l-1 5-1 4-3 3-2-1-2-7-8-4-3-3-2-1v-2l-4-2 1-1-3-2-1 2-3-1-3-3-6-1-2-4-4-1v-1l-5-4-7-3v-2l-5 1-3-3-1-2-3 1-3-5-5-3v-4l-4-1-2-3v-7l1-1-3-2-2-16-1-11-1-9 1-5h-2v-6l-1-5-2-9-1-22-1-11 1-3v-8h2z" fill="#C03385"/>
<path transform="translate(764,774)" d="m0 0 3 1-5 5-8 7-13 9 7-1 1-2h3v-2l7-3 6-3h2l1-2h5l6-7h3l4 4 2 4 2 1v-2l4 2h-2v2l-2 2h4l2-1 1 8-1 3 5 5 1 5 6 3-1 3 4 2 2 3 6 1v3l3-1v2l4 1 1-1 2 1 1-3 4 1 1 3-1 2 5 2-2 1v3h-2l-2 6h-2l-2 8h-2v2h-3l-1 4h-2v2h-3l-1 5-6 7-2-1-5 5h-2l-2 4-5 5-11 7-23 12-19 8-20 7-3-1 4-2h3v-2l9-3 8-5 3-3 9-2 5-2 2-5 4-2 5-7 2-2-1-2h-5l-1-4h-10l-2-1-5 2-4-1v-4l-1-2h-2l-1-5-6 1v-2l-3-1-2 2-3-7-4-4 1-9-1-1-2 2-3-2h-4l-5-5h2l-1-3 4-3-6-1v-2l-3 1-5-1-10-1-5-1-2-3-5 1-5 2h-12l-23 2h-13l-19-3v-1l19 1h20l17-2 24-5 18-6 25-12 16-10 14-11z" fill="#E35C54"/>
<path transform="translate(944,1091)" d="m0 0 4 1-5 2-24 5-17 2 1 5h7l3-1 13 4 2 1v5l-2 3-7-1 3 4-3 2 4 2h3l-1 4h-2v3l-2 1 1 1v6l3 3 1 3 2 2-2 4 2 6 3-1-1-5 4 1 1 6 5-2 1 5-1 2h-2l1 9-1 1v2l3-3 3 1-2 1v3l6-1v-2h5v2l2 1 4 1 1-2v3l-5 1-1 4-1 1h-5v2l-7 3-9 2-7 1-2 2h-4l-1 3-5 2-11 1h-7l-2 1-34 3-2 1-21 1h-29v-2l35-2 2-2 2-1 12-1 10-7v-2h-4l-1-2-7-3 1-7-4-4v-6l3-1-2-7h2l-2-5v-4l-7-3-1-3-4-1 2-4-3-1v-2l-5-2 2-5h5l-1-6 2-1-3-3 1-2-5-1-3-2-8-1-7-3 1-5-92 1h-110l-52-1v-1l199-1 79-2 49-3 33-5z" fill="#E25D54"/>
<path transform="translate(161,563)" d="m0 0h1v203h-1l-1-26-5-7-8 1-1-3-15 1v2l-4 3-3-1-4 1-2 4-8 3-9 6h-8l-3 2-6 2-9 7-3 6-3-1-2 4h-2l-2 13-1 71h-1l-1-31-1-50v-28h1l1-36 1-11h2l1-5-1-2 3-3v-2l4-2 1-4h4l1-4 5-1 3-1v-2l6-2 4 2 8-4 11-2 10-6 5-1 5-5 2 1v2l3-3h8l3 3 4 5 4 6 2 1z" fill="#D15D5F"/>
<path transform="translate(491,1105)" d="m0 0 75 1 52 1v1l-27 1-1 5 4 1 1 2 3-1 2 2 1 3h-2v3l7-1v4l-4 3h-3v3l12 2 2 3-3 2 3 1-2 5-1 3 3-1 8 1 1 6h2l-1 4-3 1v4l5 2-2 1 1 9-4 2-2 3-7 1-1 3 3 2v2l2 1-1 4 9 1 2 4 3 2-3 1h-8l2 5-3 1h-84l2-3 6-2h9l1-2 9-2-1-2 4-1-1-4h-10l-1-3h-2v-2l-8-1v-2l-5-1-3-6-5-3-1-2h-2v-5l4 1v-2h-2v-2h2l-1-4 1-4-2-1 1-3h2l-2-7 5-1-1-2v-7l1 2 2-3h5v-5l2-4v-3l-3-1 2-2-13-3-9-1-9-5-2-1-21-1 4-2z" fill="#EF7A35"/>
<path transform="translate(143,472)" d="m0 0h3l-1 4 4 1 2 1 1 4 4 6 1 6 2 7 2 5 1 17v40l-1 16h-1l-1-12-2-4-2-1-1-5-2-2-2-3-1-4-1-5-6 1-2 4-5 1-1-2h-4l-1 4-6 3-8-1-4 1h-4l-1 2-3 4h-14l-9 3v2h-2v3l-10 6v4h-2v6l-2 5h-2l-1 24-1 57h-1l-1-27v-141h1l1 41 1-15 2-6 1-5 2-2v-5l5-7 4 1v-5l5-3h9l3 2 4-2 4 1 8-1-1-3 4-2h4l5-3 1-2 5-1 1-2h4l2-5 3-2 1 1 4-4z" fill="#B14A7E"/>
<path transform="translate(158,832)" d="m0 0 3 3 2 8 2 12 3 46 4 26 5 21-1 4-2-4-2-9h-2l-3-11-4-7v-2l-2-1-2-8-3-1-2-7h-2v8l-3 6h-5l-6 3h-6l-2-1-1-4-1 5h-6l-4-1-2 1-1 3-4-3-2 3-4 1-5-2-2 1-2-5-3-4v-3h-3v-2l-12-1-1 4-2 1-3 14h-2v8h-1l-2-16-2-32v-19h2l1-2 2 1 1 11h2l3 3v-3l5-1 4-6 4-1v-2l6-2 2 2 2-3 7 1 4-1v-2l3-3 5-2h4l1-6 7-3 8-3h9l1-4h2v-3l5-3z" fill="#EE7936"/>
<path transform="translate(454,532)" d="m0 0h2l1 5h6l1 8-8 16-8 26-5 30v32l2 15v6l-2-4-2-12-2-7v-7l1-2h-4v-2h-2l1-4h-3l-1-2-5-3-4-8v-3l-7 4h-16l-4-3-4 2-1 1h-9l-2-1v2l-6-1 1-5-4 1v-2l-4 1h-3l-5-1-1-1-2 2-5-1-3 6-5 13-1 13 1 19 1 4v12h-1l-3-24-1-14v-18l2-25 3-21h1l1 7-1 6 4-6 3-7 5-8h7l1-2 5-1 3-2 9-1v4l9-1h3v-2h2v2l4-1 7-2v-1h7l5-1 4 1 7-1 2 1v-2h2l2 6 4 1 1 2 7-1v3h2l2-8 2-7-1-5 2-1v-3h-2l1-2 2 1-2-6-2-4-2-1 3-4z" fill="#E35C54"/>
<path transform="translate(875,323)" d="m0 0 3 2 5-1 4 4 1 8v7l5 1 2 4 5 1 5 6 9 4v2l5 1 3-1 1 4 2-1h5l4 1 2 2 7 1 4 3 6-1 1 1 8-1 4 2 1 9 1 2-4 1-2 2-2-1-1 3h-3l-3 2v3l4 1-6 1h-17l-14-3-16-8-3-3-6-7-4-5-6-7-6-10-2-4-2-14z" fill="#C03385"/>
<path transform="translate(146,716)" d="m0 0h5l3 6 4 3 3 11-1 4-5-7-8 1-1-3-15 1v2l-4 3-3-1-4 1-2 4-8 3-9 6h-8l-3 2-6 2-9 7-3 6-3-1-2 4h-2l-2 13h-1v-36l1-4 4-2 4 1v2l13-2 5-4 4-1h8l15-3 8-5 6-2h5l6-8z" fill="#E35D53"/>
<path transform="translate(613,338)" d="m0 0h42l26 3 21 4 2 2-8 1-7-3-14-1-12-3-14-1h-36v2l-13 1-14 1-3 2-9 1-3 2-10 2-8 3-10 3-6 2-4 2h-5l-3 3-7 2-10 4-3 3-7 1-1 3-10 5h-4v2h-3v2l-3 1-1 2-7 4-6 5-5 2-5 5-6 5-4 1v2l-7 4-7 8h-2l-1 3-8 7-1-3 16-16 8-7 12-10 18-13 24-14 21-10 20-8 27-8 25-5z" fill="#B34B7C"/>
<path transform="translate(380,532)" d="m0 0 5 3h3l6-1h11l3-1 2 1v-2h9l3 5-6-1-1 5-4 2-5-1v-2l-5 1-1 2-2-4 1-2-6 1v5l1 2-3 1-3-3-5-1-1-3-1 2h-2l-1 4-2 1v-4l-2-1 3-1 2-3 1-1z" fill="#D15D5F"/>
<path transform="translate(454,532)" d="m0 0h2l1 5h6l1 8-8 16-8 26-1 5h-1l1-11 1-7h2l2-15v-3-4h2v-3h-2l1-2 2 1-2-6-2-4-2-1 3-4z" fill="#D15D5F"/>
<path transform="translate(613,338)" d="m0 0h42l26 3 21 4 2 2-8 1-7-3-14-1-12-3-14-1h-36v2l-13 1-19 1 1-2 20-3z" fill="#B74C79"/>
<path transform="translate(1105,416)" d="m0 0 2 1 2 30-1 99h-1l-2-98z" fill="#AC4087"/>
<path transform="translate(764,774)" d="m0 0 3 1-5 5-8 7-13 9-1 2-16 8-18 8-16 5-4-1 18-6 25-12 16-10 14-11z" fill="#D15E5F"/>
<path transform="translate(343,579)" d="m0 0h1l1 7-4 30-1 18 1 12 1 19 1 4v12h-1l-3-24-1-14v-18l2-25z" fill="#D45D5C"/>
<path transform="translate(681,819)" d="m0 0h5l-3 2h-4l-2 4-5 1h-11l-23 2h-13l-19-3v-1l19 1h20l17-2z" fill="#D15D5E"/>
<path transform="translate(972,180)" d="m0 0 9 4 5 2 9 3 13 8 5 4-1 3-18-11-15-6-11-4v-2z" fill="#933B9A"/>
<path transform="translate(445,592)" d="m0 0h1l-1 11-2 14v32l2 15v6l-2-4-2-12-2-7 1-18 2-23z" fill="#D35D5D"/>
<path transform="translate(1016,204)" d="m0 0 4 2 7 7h5l4 4v2l3 1 5 7-1 3-13-12-14-11z" fill="#913A9C"/>
<path transform="translate(649,339)" d="m0 0h18l30 5 7 2v1l-8 1-7-3-14-1-12-3-14-1z" fill="#B44C7B"/>
<path transform="translate(1049,235)" d="m0 0h2v2l4 2 8 11 7 10 9 17v2h-2l-8-16-14-19-6-7z" fill="#8F399D"/>
<path transform="translate(63,883)" d="m0 0 1 3h2l3 48-2-3-4-39z" fill="#E1674D"/>
<path transform="translate(876,345)" d="m0 0 3 4 4 8v2l2 1 6 7 3 5 8 8-2 1-8-7-9-11-7-14z" fill="#AD4186"/>
<path transform="translate(439,411)" d="m0 0m-1 1m-1 1m-1 1m-1 1 1 2-7 8h-2l-1 3-8 7-1-3 16-16z" fill="#B94F76"/>
<path transform="translate(1189,289)" d="m0 0 3 1 4 16v7l-3-3-1-8-3-7z" fill="#913B9B"/>
<path transform="translate(343,579)" d="m0 0h1l1 7-3 21-2 2v-9z" fill="#D15B60"/>
<path transform="translate(972,180)" d="m0 0 9 4 5 2 1 3-11-3-8-3v-2z" fill="#953B98"/>
<path transform="translate(1105,416)" d="m0 0 2 1 1 16-1 1-1 14h-1z" fill="#AB3F88"/>
<path transform="translate(1049,235)" d="m0 0h2v2l4 2 8 11 1 3-4-2-7-9-4-5z" fill="#933A9A"/>
<path transform="translate(809,867)" d="m0 0 2 4-14 10-2-1 6-5 6-7z" fill="#D35364"/>
<path transform="translate(737,907)" d="m0 0m-2 1h2v3l-15 5-3-1 4-2h3v-2z" fill="#DD5D57"/>
<path transform="translate(743,791)" d="m0 0m-1 1m-2 1h2l-2 5-11 5 2-4z" fill="#D15A60"/>
<path transform="translate(338,634)" d="m0 0h2l1 12-1 11h-1z" fill="#D35D5D"/>
<path transform="translate(491,1105)" d="m0 0h9v1l7 1v1h-21l4-2z" fill="#EC7938"/>
<path transform="translate(674,822)" d="m0 0h5l-4 4-10-1 4-2z" fill="#E45D54"/>
<path transform="translate(167,359)" d="m0 0h1v10l-2 3-2-7 1-5z" fill="#8F3A9D"/>
<path transform="translate(1016,204)" d="m0 0 4 2 7 7-1 2-10-8z" fill="#953C98"/>
<path transform="translate(173,936)" d="m0 0h1l3 12-1 4-2-4-2-8z" fill="#E36D47"/>
<path transform="translate(690,343)" d="m0 0 12 2 2 2-8 1-5-2z" fill="#B64C79"/>
</svg>
